<svg width="24" height="22" viewBox="0 0 24 22" fill="none" xmlns="http://www.w3.org/2000/svg">
<path d="M19 6H18.18L16.48 1.32C16.3393 0.934104 16.0836 0.600651 15.7474 0.364616C15.4112 0.128582 15.0108 0.00132163 14.6 0H13C12.45 0 12 0.45 12 1C12 1.55 12.45 2 13 2H14.6L16.06 6H11.25L10.89 5H10.98C11.53 5 11.98 4.55 11.98 4C11.98 3.45 11.53 3 10.98 3H8C7.45 3 7 3.45 7 4C7 4.55 7.45 5 8 5H8.75L10.57 10H9.9C9.46 7.77 7.59 6.12 5.25 6.01C2.45 5.87 0 8.2 0 11C0 13.8 2.2 16 5 16C7.46 16 9.45 14.31 9.9 12H14.1C14.54 14.23 16.41 15.88 18.75 15.99C21.55 16.12 24 13.8 24 10.99C24 8.2 21.8 6 19 6ZM6 12H7.82C7.4 13.23 6.22 14.08 4.8 13.99C3.31 13.9 2.07 12.64 2 11.14C1.93 9.39 3.27 8 5 8C6.33 8 7.42 8.83 7.82 10H6C5.45 10 5 10.45 5 11C5 11.55 5.45 12 6 12ZM14.1 10H12.7L11.97 8H15C14.56 8.58 14.24 9.25 14.1 10ZM18.88 14C17.34 13.94 16.04 12.63 16 11.08C15.98 10.12 16.39 9.28 17.05 8.72L17.67 10.42C17.86 10.94 18.43 11.21 18.95 11.02C19.47 10.83 19.74 10.26 19.55 9.74L18.92 8.01L18.93 8C19.3309 7.98633 19.7305 8.05405 20.1045 8.19908C20.4785 8.3441 20.8193 8.56343 21.1062 8.84381C21.3932 9.12418 21.6203 9.4598 21.7739 9.83039C21.9275 10.201 22.0044 10.5989 22 11C22 12.72 20.62 14.06 18.88 14ZM11 19H7L13 22V20H17L11 17V19Z" fill="url(#paint0_linear_11_55)"/>
<defs>
<linearGradient id="paint0_linear_11_55" x1="12" y1="0" x2="12" y2="22" gradientUnits="userSpaceOnUse">
<stop stop-color="#FFBF00"/>
<stop offset="1" stop-color="#F2A50C"/>
</linearGradient>
</defs>
</svg>
